# xmcd
#
# Track frame offsets:
#	187
#	15892
#	34070
#
# Disc length: 739 seconds
#
# Revision: 0
# Processed by: cddbd v1.5.1PL0 Copyright (c) Steve Scherf et al.
# Submitted via: audiograbber 1.83.01
#
DISCID=1302e103
DTITLE=Mark Chesnutt - Goin' Through The Big D - CD Single
DYEAR=1994
DGENRE=Country
TTITLE0=Goin' Through The Big D (Radio Edit)
TTITLE1=Goin' Through The Big D (Dance Mix)
TTITLE2=Goin' Through The Big D (Beat Mix)
EXTD=
EXTT0=
EXTT1=
EXTT2=
PLAYORDER=
